<svg width="37" height="20" viewBox="0 0 37 20" fill="none" xmlns="http://www.w3.org/2000/svg">
<path d="M31.4491 5.91839C30.2509 2.49338 26.9265 0.133636 23.2157 0.133636C20.046 0.133636 17.0698 1.8844 15.5622 4.58632H15.5237C15.0985 4.51013 14.6733 4.47217 14.2481 4.47217C11.8128 4.47217 9.5708 5.76605 8.33401 7.82127C6.28534 7.89746 4.58456 9.3055 4.12078 11.2084C1.87884 11.4367 0.139404 13.2633 0.139404 15.5469C0.139404 17.9445 2.1107 19.8854 4.54597 19.8854H29.6325C33.6139 19.8854 36.8608 16.6887 36.8608 12.7687C36.8605 9.53371 34.6186 6.71768 31.4491 5.91841L31.4491 5.91839ZM29.6323 18.0967H23.2931C24.2208 17.1073 24.8006 15.7752 24.8006 14.291C24.8006 11.7411 23.0997 9.57181 20.6259 8.88685C20.0074 7.25053 18.8092 5.95638 17.3017 5.19531C18.5387 3.17828 20.7804 1.92239 23.1772 1.92239C26.2696 1.92239 29.0139 3.97734 29.8257 6.90781C29.903 7.25026 30.2123 7.51678 30.5602 7.55475C33.15 8.01135 35.0052 10.1808 35.0052 12.7685C35.0438 15.7372 32.6085 18.0966 29.6323 18.0966V18.0967ZM4.54581 13.0351H4.81652C5.08723 13.073 5.3191 12.9971 5.51215 12.8068C5.70548 12.6547 5.82142 12.4261 5.82142 12.1598C5.8988 10.7136 7.09701 9.61001 8.52714 9.61001H8.79785C9.1845 9.64797 9.53235 9.4579 9.72562 9.07722C10.5375 7.36472 12.3154 6.22294 14.2481 6.22294C16.4901 6.22294 18.4614 7.70716 19.0799 9.8383C19.1573 10.1807 19.4666 10.4473 19.8144 10.4852C21.6697 10.7897 23.0227 12.3881 23.0227 14.2148C23.0227 16.308 21.2833 18.0205 19.1573 18.0205H4.58469C3.15456 18.0205 1.99486 16.8787 1.99486 15.4707C1.95604 14.1768 3.11569 13.035 4.54583 13.035L4.54581 13.0351Z" fill="black"/>
</svg>
